<svg width="267" height="390" viewBox="0 0 267 390" fill="none" xmlns="http://www.w3.org/2000/svg">
<line x1="63.916" y1="29.6201" x2="63.916" y2="184.12" stroke="white" stroke-opacity="0.3" stroke-dasharray="2 2"/>
<line x1="167.521" y1="55.9805" x2="17" y2="55.9805" stroke="white" stroke-opacity="0.3" stroke-dasharray="2 2"/>
<line x1="35.5684" y1="147.813" x2="203.33" y2="148.476" stroke="white" stroke-opacity="0.3" stroke-dasharray="2 2"/>
<line x1="156.749" y1="21" x2="156.749" y2="166.216" stroke="white" stroke-opacity="0.3" stroke-dasharray="2 2"/>
<path d="M131.333 128.894L129.725 118.474L141.52 121.34L138.303 124.205L142.987 130.41L139.375 133.062L134.55 126.55L131.333 128.894Z" stroke="white" stroke-opacity="0.7"/>
<path fill-rule="evenodd" clip-rule="evenodd" d="M227.374 71.7317H248.434C250.262 71.7317 251.744 73.2137 251.744 75.0418C251.744 76.8699 250.262 78.3518 248.434 78.3518H227.374C227.183 78.7046 226.962 79.0391 226.715 79.3518H248.434C250.814 79.3518 252.744 77.4221 252.744 75.0418C252.744 72.6614 250.814 70.7317 248.434 70.7317H226.716C226.962 71.0444 227.183 71.3789 227.374 71.7317ZM215.779 70.7317H178.81C176.429 70.7317 174.5 72.6614 174.5 75.0418C174.5 77.4221 176.429 79.3518 178.81 79.3518H215.779C215.532 79.0391 215.311 78.7046 215.12 78.3518H178.81C176.981 78.3518 175.5 76.8699 175.5 75.0418C175.5 73.2137 176.981 71.7317 178.81 71.7317H215.12C215.311 71.3789 215.532 71.0444 215.779 70.7317Z" fill="white" fill-opacity="0.7"/>
<path fill-rule="evenodd" clip-rule="evenodd" d="M200.851 96.929H248.434C250.262 96.929 251.744 98.4109 251.744 100.239C251.744 102.067 250.262 103.549 248.434 103.549H200.851C200.66 103.902 200.439 104.236 200.192 104.549H248.434C250.814 104.549 252.744 102.619 252.744 100.239C252.744 97.8586 250.814 95.929 248.434 95.929H200.192C200.439 96.2417 200.66 96.5762 200.851 96.929ZM189.255 95.929H178.81C176.429 95.929 174.5 97.8586 174.5 100.239C174.5 102.619 176.429 104.549 178.81 104.549H189.255C189.009 104.236 188.788 103.902 188.597 103.549H178.81C176.981 103.549 175.5 102.067 175.5 100.239C175.5 98.4109 176.981 96.929 178.81 96.929H188.597C188.788 96.5762 189.009 96.2417 189.255 95.929Z" fill="white" fill-opacity="0.7"/>
<path fill-rule="evenodd" clip-rule="evenodd" d="M236.657 122.126H248.434C250.262 122.126 251.744 123.608 251.744 125.436C251.744 127.264 250.262 128.746 248.434 128.746H236.658C236.467 129.099 236.246 129.434 235.999 129.746H248.434C250.814 129.746 252.744 127.817 252.744 125.436C252.744 123.056 250.814 121.126 248.434 121.126H235.999C236.246 121.439 236.466 121.773 236.657 122.126ZM225.062 121.126H178.81C176.429 121.126 174.5 123.056 174.5 125.436C174.5 127.817 176.429 129.746 178.81 129.746H225.062C224.815 129.434 224.595 129.099 224.404 128.746H178.81C176.981 128.746 175.5 127.264 175.5 125.436C175.5 123.608 176.981 122.126 178.81 122.126H224.404C224.595 121.773 224.816 121.439 225.062 121.126Z" fill="white" fill-opacity="0.7"/>
<circle cx="220.584" cy="75.0418" r="6.46242" stroke="white"/>
<circle cx="194.061" cy="100.239" r="6.46242" stroke="white"/>
<circle cx="229.867" cy="125.437" r="6.46242" stroke="white"/>
<g opacity="0.5" clip-path="url(#clip0_302_955)">
<path d="M39.1226 79.1731C42.0965 81.0707 44.8226 83.3677 47.2322 86.0062" stroke="white" stroke-width="2" stroke-linecap="round"/>
<path d="M39.1661 82.8076L38.2036 78.8149C38.1975 78.7898 38.1961 78.7637 38.1997 78.738C38.2032 78.7124 38.2115 78.6877 38.2241 78.6654C38.2367 78.6431 38.2534 78.6237 38.2731 78.6083C38.2929 78.5928 38.3154 78.5816 38.3393 78.5753L42.1253 77.5603" stroke="white" stroke-width="2" stroke-linecap="round"/>
<path d="M43.976 88.1923H33.8953C33.3421 88.2017 32.8079 87.9804 32.4093 87.5768C32.0107 87.1733 31.7802 86.6202 31.7681 86.0384V70.9615C31.7802 70.3797 32.0107 69.8267 32.4093 69.4231C32.8079 69.0195 33.3421 68.7983 33.8953 68.8077H42.115L46.1033 72.5096V78.885" stroke="white" stroke-width="2" stroke-miterlimit="10" stroke-linecap="round"/>
</g>
<g opacity="0.5" clip-path="url(#clip1_302_955)">
<path d="M46.1882 113.179V119.591C46.1463 120.281 45.855 120.928 45.3736 121.402C44.8923 121.875 44.2568 122.139 43.5963 122.139H32.3304C31.672 122.145 31.0382 121.878 30.5665 121.397C30.0949 120.916 29.8236 120.26 29.8115 119.571V113.179" stroke="white" stroke-width="2" stroke-linecap="round" stroke-linejoin="round"/>
<path d="M37.9473 114.509C38.326 108.114 39.6328 104.849 39.6328 104.849" stroke="white" stroke-width="2" stroke-linecap="round"/>
<path d="M41.0613 112.859L38.0635 115.831C38.0266 115.867 37.9783 115.887 37.9283 115.887C37.8782 115.887 37.8299 115.867 37.793 115.831L34.9521 112.686" stroke="white" stroke-width="2" stroke-linecap="round"/>
</g>
<g opacity="0.3">
<circle cx="95.717" cy="97.1223" r="6.39184" stroke="white" stroke-opacity="0.7"/>
<circle cx="122.518" cy="97.1223" r="6.39184" stroke="white" stroke-opacity="0.7"/>
<path d="M95.3341 73.3838H109.501H124.05C127.496 73.3838 131.708 74.5324 133.622 76.8297C135.154 78.6675 135.536 83.4663 135.536 85.6359V113.969C135.536 121.627 126.73 132.73 109.501 132.73C93.8025 132.73 83.4648 123.158 83.4648 113.969V85.6359C83.3372 83.8492 83.618 79.5864 85.7621 76.8297C87.9063 74.073 93.0368 73.3838 95.3341 73.3838Z" stroke="white" stroke-opacity="0.7"/>
<path d="M81.1678 89.8474H83.4651V107.843H81.1678C78.7429 107.46 73.8931 105.009 73.8931 98.2708C73.8931 91.5321 78.7429 89.8474 81.1678 89.8474Z" stroke="white" stroke-opacity="0.7"/>
<path d="M137.834 107.843L135.536 107.843L135.536 89.8477L137.834 89.8477C140.259 90.2305 145.108 92.681 145.108 99.4197C145.108 106.158 140.259 107.843 137.834 107.843Z" stroke="white" stroke-opacity="0.7"/>
<path d="M96.0996 115.5C97.2482 117.543 101.46 121.627 109.118 121.627C116.775 121.627 120.987 117.543 122.135 115.5" stroke="white" stroke-opacity="0.7"/>
</g>
<defs>
<clipPath id="clip0_302_955">
<rect width="17" height="21" fill="white" transform="translate(31 68)"/>
</clipPath>
<clipPath id="clip1_302_955">
<rect width="18" height="19" fill="white" transform="translate(29 104)"/>
</clipPath>
</defs>
</svg>
