<svg width="267" height="390" viewBox="0 0 267 390" fill="none" xmlns="http://www.w3.org/2000/svg">
<path d="M134.188 126.593H141.654M134.188 126.593L146.103 121.986H153.887M134.188 126.593L135.379 133.822M141.654 126.593L153.887 121.986M141.654 126.593L142.925 133.981M153.887 121.986L155.079 129.056M144.196 141.368L136.571 141.05L135.379 133.822M144.196 141.368L156.27 136.125L155.079 129.056M144.196 141.368L142.925 133.981M135.379 133.822L142.925 133.981M142.925 133.981L155.079 129.056" stroke="white" stroke-opacity="0.7" stroke-linejoin="round"/>
<path d="M121.16 110.638V146.611" stroke="white" stroke-opacity="0.7" stroke-linejoin="round"/>
<path d="M70.7993 114.915V140.733" stroke="white" stroke-opacity="0.7" stroke-linejoin="round"/>
<path d="M98.4424 146.134V120.875H106.068" stroke="white" stroke-opacity="0.7" stroke-linejoin="round"/>
<path d="M106.068 147.088V119.604H96.695V146.452M94.312 146.293V118.015H106.545L108.133 119.604V147.088" stroke="white" stroke-opacity="0.7" stroke-linejoin="round"/>
<path d="M70.1641 114.679C70.1641 114.933 70.7466 114.838 70.9584 114.838C74.4535 114.361 82.9898 113.61 89.2281 113.09C96.8537 112.455 119.731 110.548 121.319 110.548C121.701 109.913 121.478 108.748 121.319 108.324C104.797 109.913 71.2126 113.09 70.9584 113.09C70.6407 113.09 70.1641 113.09 70.1641 113.567V114.679Z" stroke="white" stroke-opacity="0.7" stroke-linejoin="round"/>
<path d="M121.319 110.707L196.622 117.062C197.893 116.426 199.641 116.161 199.323 115.95C198.846 115.632 198.211 115.314 196.94 115.155L121.319 108.324" stroke="white" stroke-opacity="0.7" stroke-linejoin="round"/>
<path d="M94.312 108.801V104.352L104.797 103.081L112.423 103.876C111.046 105.041 108.038 107.371 107.021 107.371C105.75 107.371 104.956 106.735 104.162 106.735C103.526 106.735 97.3305 108.112 94.312 108.801Z" stroke="white" stroke-opacity="0.7" stroke-linejoin="round"/>
<path d="M104.638 107.053V109.754" stroke="white" stroke-opacity="0.7" stroke-linejoin="round"/>
<path d="M94.4707 108.959V110.707" stroke="white" stroke-opacity="0.7" stroke-linejoin="round"/>
<path d="M112.264 104.034L116.076 104.352V108.642" stroke="white" stroke-opacity="0.7" stroke-linejoin="round"/>
<path d="M141.019 104.511L145.149 99.7451C143.084 100.063 138.318 100.381 135.617 100.698C135.458 103.876 136.411 105.782 137.206 105.464C137.841 105.21 138.636 104.723 138.953 104.511H141.019Z" stroke="white" stroke-opacity="0.7" stroke-linejoin="round"/>
<path d="M155.793 104.67L152.775 99.4275L160.401 100.54V104.035L159.606 104.67H155.793Z" stroke="white" stroke-opacity="0.7" stroke-linejoin="round"/>
<path d="M160.242 104.352V111.819" stroke="white" stroke-opacity="0.7" stroke-linejoin="round"/>
<path d="M135.935 104.352V109.595" stroke="white" stroke-opacity="0.7" stroke-linejoin="round"/>
<path d="M144.99 99.9041L149.915 99.4275V110.866" stroke="white" stroke-opacity="0.7" stroke-linejoin="round"/>
<path d="M150.074 99.4275L152.775 99.5864" stroke="white" stroke-opacity="0.7" stroke-linejoin="round"/>
<path d="M203.453 108.165C203.347 110.336 203.199 114.901 203.453 115.791C205.201 116.108 208.696 116.108 210.285 115.791C210.285 114.138 210.285 110.018 210.285 108.165M203.453 108.165C203.468 107.847 202.977 106.894 204.724 106.417C206.472 105.941 209.808 106.1 210.285 106.735C210.666 107.244 210.444 107.9 210.285 108.165M203.453 108.165C204.565 108.324 207.489 108.546 210.285 108.165" stroke="white" stroke-opacity="0.7" stroke-linejoin="round"/>
<path opacity="0.7" d="M35.3721 117.856L70.7994 115.314V116.585L35.3721 119.127V138.509" stroke="white" stroke-opacity="0.7" stroke-linejoin="round"/>
<path opacity="0.7" d="M68.2576 141.527V139.621H64.4448V142.798" stroke="white" stroke-opacity="0.7" stroke-linejoin="round"/>
<path opacity="0.7" d="M63.3325 142.957V138.509H69.0517V141.209" stroke="white" stroke-opacity="0.7" stroke-linejoin="round"/>
<path opacity="0.7" d="M54.7538 144.545L54.4361 137.396H47.7637V146.929" stroke="white" stroke-opacity="0.7" stroke-linejoin="round"/>
<path opacity="0.7" d="M47.7637 137.396L43.3154 138.826V142.321" stroke="white" stroke-opacity="0.7" stroke-linejoin="round"/>
<path opacity="0.7" d="M212.35 116.108L207.425 116.585L192.333 120.716L185.342 124.052L167.39 132.631L156.746 137.873L121.796 152.012L86.5271 158.049L63.3325 162.18L41.7266 161.703L9 165.198" stroke="white" stroke-opacity="0.7" stroke-linejoin="round"/>
<path opacity="0.7" d="M23.1392 150.741L48.2401 146.929L70.9581 140.892C73.2882 141.103 78.7108 142.067 81.7611 144.228C85.5739 146.929 90.3399 146.293 94.3116 146.293C97.4889 146.293 97.2241 146.293 96.6946 146.293L98.4421 145.975L105.909 146.293L106.068 147.087C108.927 146.876 113.185 146.515 116.235 146.77C117.665 146.889 120.683 146.611 121.319 146.611" stroke="white" stroke-opacity="0.7" stroke-linejoin="round"/>
<path opacity="0.7" d="M121.319 146.611L136.411 141.209" stroke="white" stroke-opacity="0.7" stroke-linejoin="round"/>
<path opacity="0.7" d="M155.793 131.836L171.045 124.846C175.175 123.098 183.976 119.476 186.137 118.968C188.838 118.332 192.333 117.22 195.51 117.062" stroke="white" stroke-opacity="0.7" stroke-linejoin="round"/>
<path opacity="0.7" d="M57.772 116.108V115.473C59.0959 115.526 61.839 115.6 62.2202 115.473V115.95" stroke="white" stroke-opacity="0.7" stroke-linejoin="round"/>
<path opacity="0.7" d="M57.772 115.473C57.6131 115.049 57.5814 114.202 58.7252 114.202C60.155 114.202 61.9025 113.884 62.3791 114.202C62.7603 114.456 62.432 115.155 62.2202 115.473" stroke="white" stroke-opacity="0.7" stroke-linejoin="round"/>
<path opacity="0.7" d="M68.8926 115.473V115.155C69.0515 114.679 69.0515 113.884 66.9862 114.043C64.2934 114.25 63.6501 113.725 63.0147 114.202C62.5063 114.583 62.538 115.632 62.538 115.95" stroke="white" stroke-opacity="0.7" stroke-linejoin="round"/>
<path opacity="0.7" d="M62.5381 115.314C63.1736 115.473 64.9211 115.632 65.5566 115.632" stroke="white" stroke-opacity="0.7" stroke-linejoin="round"/>
<path opacity="0.7" d="M92.7227 110.866V100.063L97.0121 99.1096V103.876" stroke="white" stroke-opacity="0.7" stroke-linejoin="round"/>
<path opacity="0.7" d="M97.0122 99.1096L105.432 100.063V102.922" stroke="white" stroke-opacity="0.7" stroke-linejoin="round"/>
<path opacity="0.7" d="M92.0876 101.969V111.025L85.7329 111.66V102.764L92.0876 101.969ZM92.0876 101.969H92.5642" stroke="white" stroke-opacity="0.7" stroke-linejoin="round"/>
<path opacity="0.7" d="M212.191 117.379C208.802 117.644 200.308 119 193.445 122.304C184.866 126.435 170.886 132.948 161.83 137.238C152.775 141.527 137.206 148.517 130.692 150.583C125.481 152.235 106.174 155.19 97.1714 156.461" stroke="white" stroke-opacity="0.7" stroke-linejoin="round"/>
<path opacity="0.7" d="M210.125 94.5026L176.128 97.9977V97.3622L203.135 94.3438" stroke="white" stroke-opacity="0.7" stroke-linejoin="round"/>
<path opacity="0.7" d="M176.287 112.931L176.128 93.2316L164.213 90.6897L164.054 112.137" stroke="white" stroke-opacity="0.7" stroke-linejoin="round"/>
<path opacity="0.7" d="M161.036 93.7082V91.6429L164.054 90.6897" stroke="white" stroke-opacity="0.7" stroke-linejoin="round"/>
<path opacity="0.7" d="M175.969 93.2315C176.287 93.2315 176.446 92.596 176.128 92.4371C175.81 92.2783 165.007 89.8953 164.213 89.8953C163.419 89.8953 160.877 90.6896 160.877 90.8485C160.877 91.0073 160.718 91.6428 161.035 91.6428" stroke="white" stroke-opacity="0.7" stroke-linejoin="round"/>
<path opacity="0.7" d="M164.213 90.6896C164.16 90.5307 164.086 90.1495 164.213 89.8953" stroke="white" stroke-opacity="0.7" stroke-linejoin="round"/>
<path opacity="0.7" d="M163.418 94.1848V112.296" stroke="white" stroke-opacity="0.7" stroke-linejoin="round"/>
<path opacity="0.7" d="M163.419 95.138L149.28 92.2784C149.174 91.9607 149.025 91.3252 149.28 91.3252C149.534 91.3252 158.706 93.3375 163.26 94.3437" stroke="white" stroke-opacity="0.7" stroke-linejoin="round"/>
<path opacity="0.7" d="M149.28 92.4373V99.2685" stroke="white" stroke-opacity="0.7" stroke-linejoin="round"/>
<path opacity="0.7" d="M149.12 92.4373L99.8715 99.2739M149.12 91.3252C128.732 94.1318 87.9883 99.9358 87.4799 100.063C86.9715 100.19 87.1093 100.698 87.3211 101.016L92.5637 100.288" stroke="white" stroke-opacity="0.7" stroke-linejoin="round"/>
<path opacity="0.7" d="M87.48 99.904V97.521" stroke="white" stroke-opacity="0.7" stroke-linejoin="round"/>
<path opacity="0.7" d="M90.3398 99.5862V97.3621" stroke="white" stroke-opacity="0.7" stroke-linejoin="round"/>
<path opacity="0.7" d="M87.7979 96.5679C87.639 96.5679 86.8447 96.5679 87.4802 97.3622C88.4333 97.4682 90.3715 97.4893 90.4986 97.3622C90.6574 97.2034 90.8163 97.3622 90.6574 96.8856C90.4986 96.409 87.9568 96.5679 87.7979 96.5679Z" stroke="white" stroke-opacity="0.7" stroke-linejoin="round"/>
<path opacity="0.7" d="M87.3213 97.3621L66.9863 100.539" stroke="white" stroke-opacity="0.7" stroke-linejoin="round"/>
<path opacity="0.7" d="M87.1623 96.5679L67.145 99.7452" stroke="white" stroke-opacity="0.7" stroke-linejoin="round"/>
<path opacity="0.7" d="M87.48 101.175V102.446" stroke="white" stroke-opacity="0.7" stroke-linejoin="round"/>
<path opacity="0.7" d="M35.3721 119.127V118.015" stroke="white" stroke-opacity="0.7" stroke-linejoin="round"/>
<path opacity="0.7" d="M35.3721 119.127L20.7563 118.968" stroke="white" stroke-opacity="0.7" stroke-linejoin="round"/>
<path opacity="0.7" d="M35.3717 118.015L23.7744 117.856" stroke="white" stroke-opacity="0.7" stroke-linejoin="round"/>
<path opacity="0.7" d="M37.914 142.163H44.1098V147.405M37.914 142.163V148.358L30.9238 149.47V142.957L37.914 142.163Z" stroke="white" stroke-opacity="0.7" stroke-linejoin="round"/>
<path opacity="0.7" d="M39.3436 142.004V138.667L24.7279 139.144M24.7279 139.144V145.181M24.7279 139.144H22.6626V145.181" stroke="white" stroke-opacity="0.7" stroke-linejoin="round"/>
<path opacity="0.7" d="M22.6626 145.34L29.6528 144.546L30.1294 149.629L23.2981 150.583L22.6626 145.34ZM22.6626 145.34L16.4668 148.517L16.7845 151.377" stroke="white" stroke-opacity="0.7" stroke-linejoin="round"/>
<path opacity="0.7" d="M66.9865 113.884L66.8276 99.9041" stroke="white" stroke-opacity="0.7" stroke-linejoin="round"/>
<path opacity="0.7" d="M61.9028 100.381L66.9866 100.539" stroke="white" stroke-opacity="0.7" stroke-linejoin="round"/>
<path opacity="0.7" d="M61.7437 99.4275L67.1451 99.7452" stroke="white" stroke-opacity="0.7" stroke-linejoin="round"/>
<path opacity="0.7" d="M37.9138 117.697L38.5493 69.7192" stroke="white" stroke-opacity="0.7" stroke-linejoin="round"/>
<path opacity="0.7" d="M35.8486 117.538V89.5776" stroke="white" stroke-opacity="0.7" stroke-linejoin="round"/>
<path opacity="0.7" d="M61.7438 114.043V90.8485C61.585 87.8301 61.1084 80.9988 60.4729 77.8214C59.8374 74.6441 59.5725 72.5788 59.6784 71.9434" stroke="white" stroke-opacity="0.7" stroke-linejoin="round"/>
<g opacity="0.7">
<path d="M51.5763 100.698V96.8853H55.2302L55.7068 97.3619V100.698L55.3891 101.175H52.3706L51.5763 100.698Z" stroke="white" stroke-opacity="0.7" stroke-linejoin="round"/>
<path d="M43.9507 89.7363V84.4937H46.9692L46.8103 89.8951L43.9507 89.7363Z" stroke="white" stroke-opacity="0.7" stroke-linejoin="round"/>
</g>
<path opacity="0.7" d="M42.8389 84.6527L43.4743 83.2229L46.9694 83.3818L47.9226 83.6995L47.7637 91.0074L42.8389 90.5308V84.6527Z" stroke="white" stroke-opacity="0.7" stroke-linejoin="round"/>
<path opacity="0.7" d="M38.5493 69.5603L59.5198 73.6908" stroke="white" stroke-opacity="0.7" stroke-linejoin="round"/>
<path opacity="0.7" d="M38.5493 64V70.0369" stroke="white" stroke-opacity="0.7" stroke-linejoin="round"/>
<path opacity="0.7" d="M38.5493 64H40.138V65.5887L42.6799 66.0653V67.6539C45.2217 68.3953 50.8138 69.9099 52.8473 70.0369C53.2286 69.1473 54.0653 69.4544 54.436 69.7192L54.7538 68.6071H56.0247V67.6539C56.872 67.6539 58.5983 67.7493 58.7254 68.1305C58.8525 68.5118 58.7784 70.7254 58.7254 71.7845L59.6786 72.1022" stroke="white" stroke-opacity="0.7" stroke-linejoin="round"/>
<path opacity="0.7" d="M38.708 64H36.1662V66.0653L34.2598 66.5419" stroke="white" stroke-opacity="0.7" stroke-linejoin="round"/>
<path opacity="0.7" d="M27.5874 79.5688V87.9888L35.8485 88.942V89.8952" stroke="white" stroke-opacity="0.7" stroke-linejoin="round"/>
<path opacity="0.7" d="M35.8484 89.2598L22.3447 87.6711" stroke="white" stroke-opacity="0.7" stroke-linejoin="round"/>
<path opacity="0.7" d="M61.7437 87.5122L69.0515 89.4186V99.2684" stroke="white" stroke-opacity="0.7" stroke-linejoin="round"/>
<path opacity="0.7" d="M153.092 92.1194L152.934 79.2512" stroke="white" stroke-opacity="0.7" stroke-linejoin="round"/>
<path opacity="0.7" d="M90.0221 96.4087L90.3398 84.6526" stroke="white" stroke-opacity="0.7" stroke-linejoin="round"/>
<path opacity="0.7" d="M149.756 91.3251V87.5123V85.447C149.862 84.6527 150.074 82.8734 150.074 82.1108C150.074 81.3482 149.862 79.463 149.756 78.6157" stroke="white" stroke-opacity="0.7" stroke-linejoin="round"/>
<path opacity="0.7" d="M145.467 91.643C145.361 90.8486 145.213 88.974 145.467 87.8301C145.784 86.4003 145.467 85.2883 145.467 83.5407C145.467 81.7932 144.99 80.3634 145.467 78.9336" stroke="white" stroke-opacity="0.7" stroke-linejoin="round"/>
<path opacity="0.7" d="M261.439 117.538C257.997 119.974 249.779 126.276 244.441 131.995C237.768 139.144 219.975 160.273 203.771 165.993C190.807 170.568 133.128 185.904 105.909 193" stroke="white" stroke-opacity="0.7" stroke-linejoin="round"/>
<path opacity="0.7" d="M216.957 117.856C213.726 118.121 205.455 119.445 198.21 122.622C189.155 126.594 175.016 134.855 164.054 139.621C153.092 144.387 136.888 152.171 119.412 154.713C105.432 156.747 57.1366 164.033 34.7363 167.422" stroke="white" stroke-opacity="0.7" stroke-linejoin="round"/>
</svg>
