<svg viewBox="0 0 256 239" fill="none" xmlns="http://www.w3.org/2000/svg">
  <title>atrium</title>
  <path
    d="M204.466 235.481L140.037 5.34294C139.328 2.80938 141.227 0.296233 143.863 0.279262L187.233 8.38991e-05C189.036 -0.011519 190.623 1.18143 191.11 2.91316L255.849 233.33C256.564 235.875 254.647 238.398 251.998 238.398H208.318C206.524 238.398 204.949 237.205 204.466 235.481Z"
    fill="currentColor"
  />
  <path
    d="M0.564265 232.707L108.845 50.2782C110.642 47.2513 115.2 47.8566 116.14 51.2471L133.843 115.06C134.133 116.105 133.984 117.222 133.431 118.155L106.708 163.248H144.241C146.044 163.248 147.624 164.451 148.099 166.186L157.576 200.768C158.272 203.307 156.357 205.811 153.719 205.811H82.6663C82.2822 205.811 81.9161 205.759 81.5725 205.663L63.1378 236.771C62.4181 237.985 61.1093 238.73 59.6953 238.73H4.00535C0.907012 238.73 -1.01453 235.367 0.564265 232.707Z"
    fill="currentColor"
  />
</svg>
