<svg width="267" height="390" viewBox="0 0 267 390" fill="none" xmlns="http://www.w3.org/2000/svg">
<path opacity="0.3" d="M214.179 112.415L193.086 118.799C199.346 143.257 211.798 154.747 219.623 155.755C235.499 152.956 242.757 147.02 252.283 140.973C240.308 135.866 231.87 116.671 229.149 107.712L222.825 109.699" stroke="white" stroke-opacity="0.7"/>
<path d="M222.708 108.138C223.615 110.775 222.296 113.579 219.82 114.431C217.345 115.282 214.58 113.882 213.674 111.245C212.767 108.607 214.085 105.803 216.561 104.952C219.036 104.1 221.801 105.501 222.708 108.138Z" stroke="white"/>
<path opacity="0.3" d="M142.142 102.593L167.84 105.632C165.783 133.383 160.471 148.047 153.555 158.224C134.727 158.441 121.988 152.868 109.572 147.542C118.838 132.942 123.053 112.05 123.861 100.22L132.005 101.303" stroke="white" stroke-opacity="0.7"/>
<path d="M132.408 101.003C132.099 104.017 134.009 106.701 136.544 107.105C139.079 107.509 141.468 105.508 141.776 102.495C142.084 99.4811 140.175 96.7964 137.64 96.3928C135.104 95.9892 132.716 97.9895 132.408 101.003Z" stroke="white"/>
<path d="M111.708 21.853C111.469 24.1871 113.276 26.4494 115.814 26.8535C118.352 27.2575 120.556 25.6338 120.794 23.2997C121.033 20.9656 119.226 18.7033 116.688 18.2992C114.15 17.8952 111.946 19.5189 111.708 21.853Z" stroke="white"/>
<path d="M198.358 25.2847C198.12 27.6188 199.926 29.8811 202.464 30.2851C205.002 30.6892 207.207 29.0654 207.445 26.7313C207.684 24.3972 205.877 22.1349 203.339 21.7309C200.801 21.3268 198.597 22.9506 198.358 25.2847Z" stroke="white"/>
<path opacity="0.3" d="M111.584 23.8633H109.01V82.202H211.103V23.8633H206.813M120.592 23.8633H198.663" stroke="white"/>
<rect opacity="0.7" x="29.5" y="42.4773" width="156.892" height="131.023" stroke="white" stroke-opacity="0.7" stroke-dasharray="2 2"/>
<g opacity="0.7">
<path d="M62.291 157.473H48.2068C47.3812 157.477 46.5872 157.153 45.9973 156.57C45.4075 155.987 45.0694 155.192 45.0567 154.358V139.135C45.0521 138.299 45.3755 137.495 45.9562 136.899C46.5368 136.303 47.3276 135.963 48.1555 135.954H62.3964L65.5351 139.135V154.376C65.4885 155.213 65.1264 156 64.5232 156.576C63.9199 157.152 63.1212 157.473 62.291 157.473Z" stroke="white" stroke-width="2" stroke-linecap="round" stroke-linejoin="round"/>
<path d="M48.9761 157.099V149.841C48.9761 147.503 50.366 146.568 52.1262 146.568H58.4662C60.2264 146.568 61.6163 147.503 61.6163 149.841V157.099" stroke="white" stroke-width="2" stroke-linecap="round" stroke-linejoin="round"/>
<path d="M59.2972 136.423V138.387C59.3151 138.602 59.2907 138.819 59.2255 139.025C59.1602 139.23 59.0554 139.421 58.917 139.585C58.7786 139.75 58.6093 139.885 58.4189 139.984C58.2285 140.082 58.0208 140.142 57.8076 140.159C57.7478 140.163 57.6879 140.163 57.6281 140.159H52.9856C52.5825 140.193 52.1822 140.066 51.871 139.805C51.5598 139.544 51.3627 139.17 51.3223 138.764C51.3066 138.639 51.3066 138.512 51.3223 138.387V136.423" stroke="white" stroke-width="2" stroke-linecap="round" stroke-linejoin="round"/>
</g>
</svg>
