<svg viewBox="0 0 225 157" fill="none" xmlns="http://www.w3.org/2000/svg">
  <path opacity="0.3"
    d="M185.179 95.4152L164.086 101.799C170.346 126.257 182.798 137.747 190.623 138.755C206.499 135.956 213.757 130.02 223.283 123.973C211.308 118.866 202.87 99.6709 200.149 90.7117L193.825 92.6986"
    stroke="white" stroke-opacity="0.7" />
  <path
    d="M193.708 91.1378C194.615 93.775 193.296 96.5794 190.82 97.4307C188.345 98.282 185.58 96.8818 184.674 94.2446C183.767 91.6073 185.085 88.803 187.561 87.9516C190.036 87.1003 192.801 88.5005 193.708 91.1378Z"
    stroke="white" />
  <path opacity="0.3"
    d="M113.142 85.5931L138.84 88.6321C136.783 116.383 131.471 131.047 124.555 141.224C105.727 141.441 92.9883 135.868 80.572 130.542C89.8379 115.942 94.0528 95.0498 94.8612 83.2197L103.005 84.3029"
    stroke="white" stroke-opacity="0.7" />
  <path
    d="M103.408 84.0031C103.099 87.0166 105.009 89.7013 107.544 90.1049C110.079 90.5085 112.468 88.5082 112.776 85.4946C113.084 82.4811 111.175 79.7964 108.64 79.3928C106.104 78.9892 103.716 80.9895 103.408 84.0031Z"
    stroke="white" />
  <path
    d="M82.7075 4.85304C82.4688 7.18715 84.2756 9.44943 86.8136 9.85349C89.3516 10.2575 91.5557 8.63378 91.7943 6.29968C92.033 3.96558 90.2263 1.70329 87.6883 1.29924C85.1503 0.895184 82.9462 2.51894 82.7075 4.85304Z"
    stroke="white" />
  <path
    d="M169.358 8.28468C169.12 10.6188 170.926 12.8811 173.464 13.2851C176.002 13.6892 178.207 12.0654 178.445 9.73132C178.684 7.39722 176.877 5.13493 174.339 4.73088C171.801 4.32682 169.597 5.95058 169.358 8.28468Z"
    stroke="white" />
  <path opacity="0.3" d="M82.584 6.86328H80.0103V65.202H182.103V6.86328H177.813M91.5922 6.86328H169.663"
    stroke="white" />
  <rect opacity="0.7" x="0.5" y="25.4773" width="156.892" height="131.023" stroke="white" stroke-opacity="0.7"
    stroke-dasharray="2 2" />
  <g opacity="0.7">
    <path
      d="M33.291 140.473H19.2068C18.3812 140.477 17.5872 140.153 16.9973 139.57C16.4075 138.987 16.0694 138.192 16.0567 137.358V122.135C16.0521 121.299 16.3755 120.495 16.9562 119.899C17.5368 119.303 18.3276 118.963 19.1555 118.954H33.3964L36.5351 122.135V137.376C36.4885 138.213 36.1264 139 35.5232 139.576C34.9199 140.152 34.1212 140.473 33.291 140.473Z"
      stroke="white" stroke-width="2" stroke-linecap="round" stroke-linejoin="round" />
    <path
      d="M19.9761 140.099V132.841C19.9761 130.503 21.366 129.568 23.1262 129.568H29.4662C31.2264 129.568 32.6163 130.503 32.6163 132.841V140.099"
      stroke="white" stroke-width="2" stroke-linecap="round" stroke-linejoin="round" />
    <path
      d="M30.2972 119.423V121.387C30.3151 121.602 30.2907 121.819 30.2255 122.025C30.1602 122.23 30.0554 122.421 29.917 122.585C29.7786 122.75 29.6093 122.885 29.4189 122.984C29.2285 123.082 29.0208 123.142 28.8076 123.159C28.7478 123.163 28.6879 123.163 28.6281 123.159H23.9856C23.5825 123.193 23.1822 123.066 22.871 122.805C22.5598 122.544 22.3627 122.17 22.3223 121.764C22.3066 121.639 22.3066 121.512 22.3223 121.387V119.423"
      stroke="white" stroke-width="2" stroke-linecap="round" stroke-linejoin="round" />
  </g>
</svg>
