<svg viewBox="0 0 236 164" fill="none" xmlns="http://www.w3.org/2000/svg">
  <line x1="46.916" y1="8.62012" x2="46.916" y2="163.12" stroke="white" stroke-opacity="0.3" stroke-dasharray="2 2" />
  <line x1="150.521" y1="34.9805" x2="1.52151e-05" y2="34.9805" stroke="white" stroke-opacity="0.3"
    stroke-dasharray="2 2" />
  <line x1="18.5684" y1="126.813" x2="186.33" y2="127.476" stroke="white" stroke-opacity="0.3" stroke-dasharray="2 2" />
  <line x1="139.749" y1="-2.18557e-08" x2="139.749" y2="145.216" stroke="white" stroke-opacity="0.3"
    stroke-dasharray="2 2" />
  <path
    d="M114.333 107.894L112.725 97.4741L124.52 100.34L121.303 103.205L125.987 109.41L122.375 112.062L117.55 105.55L114.333 107.894Z"
    stroke="white" stroke-opacity="0.7" />
  <path fill-rule="evenodd" clip-rule="evenodd"
    d="M210.374 50.7317H231.434C233.262 50.7317 234.744 52.2137 234.744 54.0418C234.744 55.8699 233.262 57.3518 231.434 57.3518H210.374C210.183 57.7046 209.962 58.0391 209.715 58.3518H231.434C233.814 58.3518 235.744 56.4221 235.744 54.0418C235.744 51.6614 233.814 49.7317 231.434 49.7317H209.716C209.962 50.0444 210.183 50.3789 210.374 50.7317ZM198.779 49.7317H161.81C159.429 49.7317 157.5 51.6614 157.5 54.0418C157.5 56.4221 159.429 58.3518 161.81 58.3518H198.779C198.532 58.0391 198.311 57.7046 198.12 57.3518H161.81C159.981 57.3518 158.5 55.8699 158.5 54.0418C158.5 52.2137 159.981 50.7317 161.81 50.7317H198.12C198.311 50.3789 198.532 50.0444 198.779 49.7317Z"
    fill="white" fill-opacity="0.7" />
  <path fill-rule="evenodd" clip-rule="evenodd"
    d="M183.851 75.929H231.434C233.262 75.929 234.744 77.4109 234.744 79.239C234.744 81.0671 233.262 82.5491 231.434 82.5491H183.851C183.66 82.9019 183.439 83.2363 183.192 83.5491H231.434C233.814 83.5491 235.744 81.6194 235.744 79.239C235.744 76.8586 233.814 74.929 231.434 74.929H183.192C183.439 75.2417 183.66 75.5762 183.851 75.929ZM172.255 74.929H161.81C159.429 74.929 157.5 76.8586 157.5 79.239C157.5 81.6194 159.429 83.5491 161.81 83.5491H172.255C172.009 83.2363 171.788 82.9019 171.597 82.5491H161.81C159.981 82.5491 158.5 81.0671 158.5 79.239C158.5 77.4109 159.981 75.929 161.81 75.929H171.597C171.788 75.5762 172.009 75.2417 172.255 74.929Z"
    fill="white" fill-opacity="0.7" />
  <path fill-rule="evenodd" clip-rule="evenodd"
    d="M219.657 101.126H231.434C233.262 101.126 234.744 102.608 234.744 104.436C234.744 106.264 233.262 107.746 231.434 107.746H219.658C219.467 108.099 219.246 108.434 218.999 108.746H231.434C233.814 108.746 235.744 106.817 235.744 104.436C235.744 102.056 233.814 100.126 231.434 100.126H218.999C219.246 100.439 219.466 100.773 219.657 101.126ZM208.062 100.126H161.81C159.429 100.126 157.5 102.056 157.5 104.436C157.5 106.817 159.429 108.746 161.81 108.746H208.062C207.815 108.434 207.595 108.099 207.404 107.746H161.81C159.981 107.746 158.5 106.264 158.5 104.436C158.5 102.608 159.981 101.126 161.81 101.126H207.404C207.595 100.773 207.816 100.439 208.062 100.126Z"
    fill="white" fill-opacity="0.7" />
  <circle cx="203.584" cy="54.0418" r="6.46242" stroke="white" />
  <circle cx="177.061" cy="79.239" r="6.46242" stroke="white" />
  <circle cx="212.867" cy="104.437" r="6.46242" stroke="white" />
  <g opacity="0.5" clip-path="url(#clip0_404_181)">
    <path d="M22.1226 58.1731C25.0965 60.0707 27.8226 62.3677 30.2322 65.0062" stroke="white" stroke-width="2"
      stroke-linecap="round" />
    <path
      d="M22.1661 61.8076L21.2036 57.8149C21.1975 57.7898 21.1961 57.7637 21.1997 57.738C21.2032 57.7124 21.2115 57.6877 21.2241 57.6654C21.2367 57.6431 21.2534 57.6237 21.2731 57.6083C21.2929 57.5928 21.3154 57.5816 21.3393 57.5753L25.1253 56.5603"
      stroke="white" stroke-width="2" stroke-linecap="round" />
    <path
      d="M26.976 67.1923H16.8953C16.3421 67.2017 15.8079 66.9804 15.4093 66.5768C15.0107 66.1733 14.7802 65.6202 14.7681 65.0384V49.9615C14.7802 49.3797 15.0107 48.8267 15.4093 48.4231C15.8079 48.0195 16.3421 47.7983 16.8953 47.8077H25.115L29.1033 51.5096V57.885"
      stroke="white" stroke-width="2" stroke-miterlimit="10" stroke-linecap="round" />
  </g>
  <g opacity="0.5" clip-path="url(#clip1_404_181)">
    <path
      d="M29.1882 92.1787V98.5913C29.1463 99.2811 28.855 99.9283 28.3736 100.402C27.8923 100.875 27.2568 101.139 26.5963 101.139H15.3304C14.672 101.145 14.0382 100.878 13.5665 100.397C13.0949 99.9164 12.8236 99.2604 12.8115 98.5715V92.1787"
      stroke="white" stroke-width="2" stroke-linecap="round" stroke-linejoin="round" />
    <path d="M20.9473 93.5093C21.326 87.1137 22.6328 83.8494 22.6328 83.8494" stroke="white" stroke-width="2"
      stroke-linecap="round" />
    <path
      d="M24.0613 91.8587L21.0635 94.8315C21.0266 94.8669 20.9783 94.8865 20.9283 94.8865C20.8782 94.8865 20.8299 94.8669 20.793 94.8315L17.9521 91.686"
      stroke="white" stroke-width="2" stroke-linecap="round" />
  </g>
  <g opacity="0.3">
    <circle cx="78.717" cy="76.1223" r="6.39184" stroke="white" stroke-opacity="0.7" />
    <circle cx="105.518" cy="76.1223" r="6.39184" stroke="white" stroke-opacity="0.7" />
    <path
      d="M78.3341 52.3838H92.5007H107.05C110.496 52.3838 114.708 53.5324 116.622 55.8297C118.154 57.6675 118.536 62.4663 118.536 64.6359V92.9691C118.536 100.627 109.73 111.73 92.5007 111.73C76.8025 111.73 66.4648 102.158 66.4648 92.9691V64.6359C66.3372 62.8492 66.618 58.5864 68.7621 55.8297C70.9063 53.073 76.0368 52.3838 78.3341 52.3838Z"
      stroke="white" stroke-opacity="0.7" />
    <path
      d="M64.1678 68.8474H66.4651V86.8428H64.1678C61.7429 86.4599 56.8931 84.0095 56.8931 77.2708C56.8931 70.5321 61.7429 68.8474 64.1678 68.8474Z"
      stroke="white" stroke-opacity="0.7" />
    <path
      d="M120.834 86.843L118.536 86.843L118.536 68.8477L120.834 68.8477C123.259 69.2305 128.108 71.681 128.108 78.4197C128.108 85.1583 123.259 86.843 120.834 86.843Z"
      stroke="white" stroke-opacity="0.7" />
    <path
      d="M79.0996 94.5005C80.2482 96.5425 84.4599 100.627 92.1175 100.627C99.7751 100.627 103.987 96.5425 105.135 94.5005"
      stroke="white" stroke-opacity="0.7" />
  </g>
  <defs>
    <clipPath id="clip0_404_181">
      <rect width="17" height="21" fill="white" transform="translate(14 47)" />
    </clipPath>
    <clipPath id="clip1_404_181">
      <rect width="18" height="19" fill="white" transform="translate(12 83)" />
    </clipPath>
  </defs>
</svg>
