<svg viewBox="0 0 254 131" fill="none" xmlns="http://www.w3.org/2000/svg">
  <path
    d="M126.188 63.5935H133.654M126.188 63.5935L138.103 58.9863H145.887M126.188 63.5935L127.379 70.8219M133.654 63.5935L145.887 58.9863M133.654 63.5935L134.925 70.9808M145.887 58.9863L147.079 66.0559M136.196 78.3681L128.571 78.0504L127.379 70.8219M136.196 78.3681L148.27 73.1255L147.079 66.0559M136.196 78.3681L134.925 70.9808M127.379 70.8219L134.925 70.9808M134.925 70.9808L147.079 66.0559"
    stroke="white" stroke-opacity="0.7" stroke-linejoin="round" />
  <path d="M113.16 47.6379V83.6108" stroke="white" stroke-opacity="0.7" stroke-linejoin="round" />
  <path d="M62.7993 51.9153V77.7326" stroke="white" stroke-opacity="0.7" stroke-linejoin="round" />
  <path d="M90.4424 83.1344V57.8745H98.068" stroke="white" stroke-opacity="0.7" stroke-linejoin="round" />
  <path d="M98.0682 84.0876V56.6036H88.695V83.4521M86.312 83.2932V55.0149H98.5448L100.133 56.6036V84.0876"
    stroke="white" stroke-opacity="0.7" stroke-linejoin="round" />
  <path
    d="M62.1641 51.6787C62.1641 51.9328 62.7466 51.8375 62.9584 51.8375C66.4535 51.3609 74.9898 50.6098 81.2281 50.09C88.8537 49.4545 111.731 47.5481 113.319 47.5481C113.701 46.9126 113.478 45.7476 113.319 45.324C96.7971 46.9126 63.2126 50.09 62.9584 50.09C62.6407 50.09 62.1641 50.09 62.1641 50.5666V51.6787Z"
    stroke="white" stroke-opacity="0.7" stroke-linejoin="round" />
  <path
    d="M113.319 47.707L188.622 54.0617C189.893 53.4262 191.641 53.1614 191.323 52.9496C190.846 52.6319 190.211 52.3141 188.94 52.1553L113.319 45.324"
    stroke="white" stroke-opacity="0.7" stroke-linejoin="round" />
  <path
    d="M86.312 45.8005V41.3522L96.7972 40.0813L104.423 40.8756C103.046 42.0407 100.038 44.3707 99.0214 44.3707C97.7504 44.3707 96.9561 43.7352 96.1618 43.7352C95.5263 43.7352 89.3305 45.1121 86.312 45.8005Z"
    stroke="white" stroke-opacity="0.7" stroke-linejoin="round" />
  <path d="M96.6382 44.053V46.7537" stroke="white" stroke-opacity="0.7" stroke-linejoin="round" />
  <path d="M86.4707 45.9592V47.7068" stroke="white" stroke-opacity="0.7" stroke-linejoin="round" />
  <path d="M104.264 41.0344L108.076 41.3522V45.6416" stroke="white" stroke-opacity="0.7" stroke-linejoin="round" />
  <path
    d="M133.019 41.5111L137.149 36.7451C135.084 37.0629 130.318 37.3806 127.617 37.6983C127.458 40.8757 128.411 42.7821 129.206 42.4643C129.841 42.2101 130.636 41.7229 130.953 41.5111H133.019Z"
    stroke="white" stroke-opacity="0.7" stroke-linejoin="round" />
  <path d="M147.793 41.6701L144.775 36.4275L152.401 37.5396V41.0346L151.606 41.6701H147.793Z" stroke="white"
    stroke-opacity="0.7" stroke-linejoin="round" />
  <path d="M152.242 41.3523V48.819" stroke="white" stroke-opacity="0.7" stroke-linejoin="round" />
  <path d="M127.935 41.3523V46.5949" stroke="white" stroke-opacity="0.7" stroke-linejoin="round" />
  <path d="M136.99 36.9041L141.915 36.4275V47.8659" stroke="white" stroke-opacity="0.7" stroke-linejoin="round" />
  <path d="M142.074 36.4275L144.775 36.5864" stroke="white" stroke-opacity="0.7" stroke-linejoin="round" />
  <path
    d="M195.453 45.165C195.347 47.3362 195.199 51.901 195.453 52.7907C197.201 53.1084 200.696 53.1084 202.285 52.7907C202.285 51.1384 202.285 47.0185 202.285 45.165M195.453 45.165C195.468 44.8473 194.977 43.8941 196.724 43.4175C198.472 42.9409 201.808 43.0998 202.285 43.7352C202.666 44.2436 202.444 44.9003 202.285 45.165M195.453 45.165C196.565 45.3239 199.489 45.5463 202.285 45.165"
    stroke="white" stroke-opacity="0.7" stroke-linejoin="round" />
  <path opacity="0.7" d="M27.3721 54.8558L62.7994 52.314V53.5849L27.3721 56.1268V75.5085" stroke="white"
    stroke-opacity="0.7" stroke-linejoin="round" />
  <path opacity="0.7" d="M60.2576 78.527V76.6206H56.4448V79.7979" stroke="white" stroke-opacity="0.7"
    stroke-linejoin="round" />
  <path opacity="0.7" d="M55.3325 79.9568V75.5085H61.0517V78.2093" stroke="white" stroke-opacity="0.7"
    stroke-linejoin="round" />
  <path opacity="0.7" d="M46.7538 81.5455L46.4361 74.3965H39.7637V83.9285" stroke="white" stroke-opacity="0.7"
    stroke-linejoin="round" />
  <path opacity="0.7" d="M39.7637 74.3965L35.3154 75.8263V79.3214" stroke="white" stroke-opacity="0.7"
    stroke-linejoin="round" />
  <path opacity="0.7"
    d="M204.35 53.1084L199.425 53.585L184.333 57.7155L177.342 61.0517L159.39 69.6306L148.746 74.8732L113.796 89.0123L78.5271 95.0493L55.3325 99.1798L33.7266 98.7032L1 102.198"
    stroke="white" stroke-opacity="0.7" stroke-linejoin="round" />
  <path opacity="0.7"
    d="M15.1392 87.7414L40.2401 83.9285L62.9581 77.8916C65.2882 78.1034 70.7108 79.0672 73.7611 81.2278C77.5739 83.9285 82.3399 83.2931 86.3116 83.2931C89.4889 83.2931 89.2241 83.2931 88.6946 83.2931L90.4421 82.9753L97.9089 83.2931L98.0677 84.0874C100.927 83.8756 105.185 83.5155 108.235 83.7697C109.665 83.8888 112.683 83.6108 113.319 83.6108"
    stroke="white" stroke-opacity="0.7" stroke-linejoin="round" />
  <path opacity="0.7" d="M113.319 83.611L128.411 78.2095" stroke="white" stroke-opacity="0.7" stroke-linejoin="round" />
  <path opacity="0.7"
    d="M147.793 68.8362L163.044 61.846C167.175 60.0985 175.976 56.4763 178.137 55.9679C180.837 55.3325 184.332 54.2204 187.51 54.0615"
    stroke="white" stroke-opacity="0.7" stroke-linejoin="round" />
  <path opacity="0.7" d="M49.772 53.1084V52.4729C51.0959 52.5259 53.839 52.6 54.2202 52.4729V52.9495" stroke="white"
    stroke-opacity="0.7" stroke-linejoin="round" />
  <path opacity="0.7"
    d="M49.772 52.4729C49.6131 52.0493 49.5814 51.202 50.7252 51.202C52.155 51.202 53.9025 50.8843 54.3791 51.202C54.7603 51.4562 54.432 52.1552 54.2202 52.4729"
    stroke="white" stroke-opacity="0.7" stroke-linejoin="round" />
  <path opacity="0.7"
    d="M60.8926 52.4729V52.1552C61.0515 51.6787 61.0515 50.8843 58.9862 51.0432C56.2934 51.2504 55.6501 50.7255 55.0147 51.2021C54.5063 51.5834 54.538 52.6319 54.538 52.9496"
    stroke="white" stroke-opacity="0.7" stroke-linejoin="round" />
  <path opacity="0.7" d="M54.5381 52.314C55.1736 52.4728 56.9211 52.6317 57.5566 52.6317" stroke="white"
    stroke-opacity="0.7" stroke-linejoin="round" />
  <path opacity="0.7" d="M84.7227 47.8658V37.0628L89.0121 36.1096V40.8756" stroke="white" stroke-opacity="0.7"
    stroke-linejoin="round" />
  <path opacity="0.7" d="M89.0127 36.1096L97.4326 37.0628V39.9224" stroke="white" stroke-opacity="0.7"
    stroke-linejoin="round" />
  <path opacity="0.7" d="M84.0876 38.9692V48.0247L77.7329 48.6601V39.7636L84.0876 38.9692ZM84.0876 38.9692H84.5642"
    stroke="white" stroke-opacity="0.7" stroke-linejoin="round" />
  <path opacity="0.7"
    d="M204.191 54.3794C200.802 54.6442 192.308 55.9998 185.445 59.3043C176.866 63.4348 162.886 69.9484 153.83 74.2378C144.775 78.5272 129.206 85.5173 122.692 87.5826C117.481 89.2348 98.1739 92.1897 89.1714 93.4607"
    stroke="white" stroke-opacity="0.7" stroke-linejoin="round" />
  <path opacity="0.7" d="M202.125 31.5026L168.128 34.9977V34.3622L195.135 31.3438" stroke="white" stroke-opacity="0.7"
    stroke-linejoin="round" />
  <path opacity="0.7" d="M168.287 49.9311L168.128 30.2316L156.213 27.6897L156.054 49.1367" stroke="white"
    stroke-opacity="0.7" stroke-linejoin="round" />
  <path opacity="0.7" d="M153.036 30.7082V28.6429L156.054 27.6897" stroke="white" stroke-opacity="0.7"
    stroke-linejoin="round" />
  <path opacity="0.7"
    d="M167.969 30.2315C168.287 30.2315 168.446 29.596 168.128 29.4371C167.81 29.2783 157.007 26.8953 156.213 26.8953C155.419 26.8953 152.877 27.6896 152.877 27.8485C152.877 28.0073 152.718 28.6428 153.035 28.6428"
    stroke="white" stroke-opacity="0.7" stroke-linejoin="round" />
  <path opacity="0.7" d="M156.213 27.6896C156.16 27.5307 156.086 27.1495 156.213 26.8953" stroke="white"
    stroke-opacity="0.7" stroke-linejoin="round" />
  <path opacity="0.7" d="M155.418 31.1848V49.2957" stroke="white" stroke-opacity="0.7" stroke-linejoin="round" />
  <path opacity="0.7"
    d="M155.419 32.138L141.28 29.2784C141.174 28.9607 141.025 28.3252 141.28 28.3252C141.534 28.3252 150.706 30.3375 155.26 31.3437"
    stroke="white" stroke-opacity="0.7" stroke-linejoin="round" />
  <path opacity="0.7" d="M141.28 29.437V36.2683" stroke="white" stroke-opacity="0.7" stroke-linejoin="round" />
  <path opacity="0.7"
    d="M141.121 29.4373L91.872 36.2739M141.121 28.3252C120.733 31.1318 79.9888 36.9358 79.4804 37.0629C78.972 37.19 79.1098 37.6983 79.3216 38.0161L84.5641 37.2883"
    stroke="white" stroke-opacity="0.7" stroke-linejoin="round" />
  <path opacity="0.7" d="M79.4805 36.904V34.521" stroke="white" stroke-opacity="0.7" stroke-linejoin="round" />
  <path opacity="0.7" d="M82.3398 36.5862V34.3621" stroke="white" stroke-opacity="0.7" stroke-linejoin="round" />
  <path opacity="0.7"
    d="M79.7979 33.5679C79.639 33.5679 78.8447 33.5679 79.4802 34.3622C80.4333 34.4682 82.3715 34.4893 82.4986 34.3622C82.6574 34.2034 82.8163 34.3622 82.6574 33.8856C82.4986 33.409 79.9568 33.5679 79.7979 33.5679Z"
    stroke="white" stroke-opacity="0.7" stroke-linejoin="round" />
  <path opacity="0.7" d="M79.3213 34.3621L58.9863 37.5394" stroke="white" stroke-opacity="0.7"
    stroke-linejoin="round" />
  <path opacity="0.7" d="M79.1623 33.5679L59.145 36.7452" stroke="white" stroke-opacity="0.7" stroke-linejoin="round" />
  <path opacity="0.7" d="M79.4805 38.1748V39.4457" stroke="white" stroke-opacity="0.7" stroke-linejoin="round" />
  <path opacity="0.7" d="M27.3721 56.127V55.0149" stroke="white" stroke-opacity="0.7" stroke-linejoin="round" />
  <path opacity="0.7" d="M27.3721 56.1269L12.7563 55.968" stroke="white" stroke-opacity="0.7" stroke-linejoin="round" />
  <path opacity="0.7" d="M27.3717 55.0148L15.7744 54.856" stroke="white" stroke-opacity="0.7" stroke-linejoin="round" />
  <path opacity="0.7" d="M29.914 79.1626H36.1098V84.4052M29.914 79.1626V85.3584L22.9238 86.4705V79.9569L29.914 79.1626Z"
    stroke="white" stroke-opacity="0.7" stroke-linejoin="round" />
  <path opacity="0.7" d="M31.3436 79.0037V75.6675L16.7279 76.1441M16.7279 76.1441V82.181M16.7279 76.1441H14.6626V82.181"
    stroke="white" stroke-opacity="0.7" stroke-linejoin="round" />
  <path opacity="0.7"
    d="M14.6626 82.34L21.6528 81.5457L22.1294 86.6294L15.2981 87.5826L14.6626 82.34ZM14.6626 82.34L8.4668 85.5173L8.78453 88.3769"
    stroke="white" stroke-opacity="0.7" stroke-linejoin="round" />
  <path opacity="0.7" d="M58.9865 50.8841L58.8276 36.9038" stroke="white" stroke-opacity="0.7"
    stroke-linejoin="round" />
  <path opacity="0.7" d="M53.9028 37.3804L58.9866 37.5392" stroke="white" stroke-opacity="0.7"
    stroke-linejoin="round" />
  <path opacity="0.7" d="M53.7437 36.4275L59.1451 36.7452" stroke="white" stroke-opacity="0.7"
    stroke-linejoin="round" />
  <path opacity="0.7" d="M29.9138 54.6971L30.5493 6.71924" stroke="white" stroke-opacity="0.7"
    stroke-linejoin="round" />
  <path opacity="0.7" d="M27.8486 54.5382V26.5776" stroke="white" stroke-opacity="0.7" stroke-linejoin="round" />
  <path opacity="0.7"
    d="M53.7438 51.0431V27.8485C53.585 24.8301 53.1084 17.9988 52.4729 14.8214C51.8374 11.6441 51.5725 9.57883 51.6784 8.94336"
    stroke="white" stroke-opacity="0.7" stroke-linejoin="round" />
  <g opacity="0.7">
    <path d="M43.5763 37.6981V33.8853H47.2302L47.7068 34.3619V37.6981L47.3891 38.1747H44.3706L43.5763 37.6981Z"
      stroke="white" stroke-opacity="0.7" stroke-linejoin="round" />
    <path d="M35.9507 26.7363V21.4937H38.9692L38.8103 26.8951L35.9507 26.7363Z" stroke="white" stroke-opacity="0.7"
      stroke-linejoin="round" />
  </g>
  <path opacity="0.7"
    d="M34.8389 21.6527L35.4743 20.2229L38.9694 20.3818L39.9226 20.6995L39.7637 28.0074L34.8389 27.5308V21.6527Z"
    stroke="white" stroke-opacity="0.7" stroke-linejoin="round" />
  <path opacity="0.7" d="M30.5493 6.5603L51.5198 10.6908" stroke="white" stroke-opacity="0.7" stroke-linejoin="round" />
  <path opacity="0.7" d="M30.5493 1V7.03695" stroke="white" stroke-opacity="0.7" stroke-linejoin="round" />
  <path opacity="0.7"
    d="M30.5493 1H32.138V2.58867L34.6799 3.06527V4.65394C37.2217 5.39532 42.8138 6.90985 44.8473 7.03695C45.2286 6.14729 46.0653 6.45443 46.436 6.71921L46.7538 5.60714H48.0247V4.65394C48.872 4.65394 50.5983 4.74926 50.7254 5.13054C50.8525 5.51182 50.7784 7.72537 50.7254 8.78448L51.6786 9.10222"
    stroke="white" stroke-opacity="0.7" stroke-linejoin="round" />
  <path opacity="0.7" d="M30.708 1H28.1662V3.06527L26.2598 3.54187" stroke="white" stroke-opacity="0.7"
    stroke-linejoin="round" />
  <path opacity="0.7" d="M19.5874 16.5688V24.9888L27.8485 25.942V26.8952" stroke="white" stroke-opacity="0.7"
    stroke-linejoin="round" />
  <path opacity="0.7" d="M27.8484 26.2598L14.3447 24.6711" stroke="white" stroke-opacity="0.7"
    stroke-linejoin="round" />
  <path opacity="0.7" d="M53.7437 24.5122L61.0515 26.4186V36.2684" stroke="white" stroke-opacity="0.7"
    stroke-linejoin="round" />
  <path opacity="0.7" d="M145.092 29.1194L144.934 16.2512" stroke="white" stroke-opacity="0.7"
    stroke-linejoin="round" />
  <path opacity="0.7" d="M82.0221 33.409L82.3398 21.6528" stroke="white" stroke-opacity="0.7" stroke-linejoin="round" />
  <path opacity="0.7"
    d="M141.756 28.3251V24.5123V22.447C141.862 21.6527 142.074 19.8734 142.074 19.1108C142.074 18.3482 141.862 16.463 141.756 15.6157"
    stroke="white" stroke-opacity="0.7" stroke-linejoin="round" />
  <path opacity="0.7"
    d="M137.467 28.643C137.361 27.8486 137.213 25.974 137.467 24.8301C137.784 23.4003 137.467 22.2883 137.467 20.5407C137.467 18.7932 136.99 17.3634 137.467 15.9336"
    stroke="white" stroke-opacity="0.7" stroke-linejoin="round" />
  <path opacity="0.7"
    d="M253.439 54.5381C249.997 56.974 241.779 63.2758 236.441 68.995C229.768 76.144 211.975 97.2733 195.771 102.993C182.807 107.568 125.128 122.904 97.9087 130"
    stroke="white" stroke-opacity="0.7" stroke-linejoin="round" />
  <path opacity="0.7"
    d="M208.957 54.856C205.726 55.1207 197.455 56.4446 190.21 59.622C181.155 63.5936 167.016 71.8547 156.054 76.6207C145.092 81.3867 128.888 89.1712 111.412 91.7131C97.4321 93.7466 49.1366 101.033 26.7363 104.422"
    stroke="white" stroke-opacity="0.7" stroke-linejoin="round" />
</svg>
